<svg id="e0XSdGtlFoP1" xmlns="http://www.w3.org/2000/svg" xmlns:xlink="http://www.w3.org/1999/xlink" viewBox="0 0 300 300" shape-rendering="geometricPrecision" text-rendering="geometricPrecision"><g transform="translate(.000001 0)"><path d="M26.24997,150C26.24997,81.65476,81.65474,26.25,150,26.25s123.75003,55.40476,123.75003,123.75-55.40477,123.75-123.75003,123.75-123.75003-55.40476-123.75003-123.75ZM150,250.00001c55.22848,0,100.00001-44.77153,100.00001-100.00001s-44.77153-100.00001-100.00001-100.00001-100.00001,44.77153-100.00001,100.00001s44.77153,100.00001,100.00001,100.00001Z" transform="matrix(.969697 0 0 0.919192 4.54545 38.3712)"/><polygon points="50,13.997995 55.970168,38.586738 77.578582,25.421418 64.413262,47.029832 89.002005,53 64.413262,58.970168 77.578582,80.578582 55.970168,67.413262 50,92.002005 44.029832,67.413262 22.421418,80.578582 35.586738,58.970168 10.997995,53 35.586738,47.029832 22.421418,25.421418 44.029832,38.586738 50,13.997995" transform="matrix(2.051282 0 0 2.051282 47.4359 67.532054)"/><polygon points="50,23.15 19,76.85 81,76.85 50,23.15" transform="matrix(.645162 0 0 3.705058 117.7419-85.772093)"/></g></svg>
