<?xml version="1.0" encoding="UTF-8"?>
<!DOCTYPE svg PUBLIC "-//W3C//DTD SVG 1.0//EN"
	"http://www.w3.org/TR/2001/REC-SVG-20010904/DTD/svg10.dtd">
<svg xmlns="http://www.w3.org/2000/svg" version="1.0"  width="600" height="600" id="s1">

<g transform="translate(-330,-79.505049)" id="l1">
<g transform="matrix(1.8724124,0,0,1.8724124,30.828045,-842.40001)" id="g1">
<path d="M311.50943,502.8044C262.59579,505.54335 219.94251,531.78302 194.58726,570.37516L207.80954,578.02551L219.1303,558.39108L227.35554,563.1228C243.85676,546.03962 265.08139,533.52916 288.86792,527.61278L288.86792,518.10511L311.50943,518.10511L311.50943,502.8044zM328.49056,502.8044L328.49056,518.10511L351.13207,518.10511L351.13207,527.61278C374.92913,533.53178 396.14008,546.07226 412.64445,563.16702L420.91391,558.39108L432.23467,577.98129L445.41273,570.37516C420.05748,531.78302 377.40422,505.54335 328.49056,502.8044zM307.26415,547.86631L311.02299,603.85098C299.5971,605.94616 289.56426,611.98378 282.32311,620.47834L235.66922,589.2136L222.93337,611.236L273.34611,636.00015C271.50029,641.18788 270.4717,646.76471 270.4717,652.58329C270.4717,658.40188 271.50029,663.97871 273.34611,669.16643L222.93337,693.93058L235.66922,715.95298L282.32311,684.68824C289.56259,693.17321 299.60583,699.17711 311.02299,701.27138L307.26415,757.30027L332.73585,757.30027L328.977,701.27138C340.39417,699.17711 350.4374,693.17321 357.67688,684.68824L404.33078,715.95298L417.06662,693.93058L366.65389,669.16643C368.49971,663.97871 369.5283,658.40188 369.5283,652.58329C369.5283,646.76471 368.49971,641.18788 366.65389,636.00015L417.06662,611.236L404.33078,589.2136L357.67688,620.47834C350.43573,611.98378 340.4029,605.94616 328.977,603.85098L332.73585,547.86631L307.26415,547.86631zM186.05247,585.05676C175.79213,605.3565 169.99999,628.29741 169.99999,652.58329C169.99999,676.86917 175.79213,699.81008 186.05247,720.10982L199.31898,712.45947L187.99822,692.82504L196.22346,688.09331C192.99061,676.81254 191.22641,664.89838 191.22641,652.58329C191.22641,640.26821 192.99061,628.35405 196.22346,617.07327L187.99822,612.34155L199.31898,592.70711L186.05247,585.05676zM453.94752,585.05676L440.72523,592.70711L452.04599,612.29733L443.77653,617.07327C447.00938,628.35405 448.77358,640.26821 448.77358,652.58329C448.77358,664.91322 447.01691,676.84469 443.77653,688.13754L452.00177,692.86926L440.68101,712.45947L453.94752,720.10982C464.20786,699.81008 470,676.86917 470,652.58329C470,628.29741 464.20786,605.3565 453.94752,585.05676zM207.80954,727.14107L194.58726,734.79143C219.94251,773.38357 262.59578,799.62324 311.50943,802.36218L311.50943,787.01725L288.86792,787.01725L288.86792,777.55381C265.08139,771.63743 243.85676,759.12696 227.35554,742.04378L219.1303,746.77551L207.80954,727.14107zM432.19044,727.18529L420.86969,746.77551L412.64445,741.99956C396.14008,759.09433 374.92913,771.63481 351.13207,777.55381L351.13207,787.01725L328.49056,787.01725L328.49056,802.36218C377.40422,799.62322 420.05748,773.38355 445.41273,734.79143L432.19044,727.18529z" style="opacity:1;fill:#000;fill-opacity:1;stroke:none;stroke-width:8;stroke-miterlimit:4;stroke-dasharray:none;stroke-dashoffset:1.8;stroke-opacity:1" id="p1"/>
<path d="M255.71428 268.79074A45 45 0 1 1 165.71428,268.79074A45 45 0 1 1 255.71428 268.79074z" transform="matrix(3.5292879,0,0,3.5292879,-423.67136,-296.05661)" style="opacity:1;fill:none;fill-opacity:1;stroke:#000;stroke-width:0.79515189;stroke-miterlimit:4;stroke-dasharray:none;stroke-dashoffset:1.8;stroke-opacity:1" id="p2"/>
</g>
</g>
</svg>