<svg id="eZet75OdCoJ1" xmlns="http://www.w3.org/2000/svg" xmlns:xlink="http://www.w3.org/1999/xlink" viewBox="0 0 300 420" shape-rendering="geometricPrecision" text-rendering="geometricPrecision"><defs><linearGradient id="eZet75OdCoJ4-fill" x1="0.499005" y1="0.991955" x2="0.495541" y2="-0.031711" spreadMethod="pad" gradientUnits="objectBoundingBox" gradientTransform="translate(0 0)"><stop id="eZet75OdCoJ4-fill-0" offset="2%" stop-color="#9c0d0d"/><stop id="eZet75OdCoJ4-fill-1" offset="87%" stop-color="rgba(255,0,0,0.59)"/><stop id="eZet75OdCoJ4-fill-2" offset="100%" stop-color="rgba(255,255,255,0)"/></linearGradient><linearGradient id="eZet75OdCoJ6-fill" x1="0.5" y1="0" x2="0.5" y2="1" spreadMethod="pad" gradientUnits="objectBoundingBox" gradientTransform="translate(0 0)"><stop id="eZet75OdCoJ6-fill-0" offset="0%" stop-color="#dfb8b8"/><stop id="eZet75OdCoJ6-fill-1" offset="47%" stop-color="#d3d2d2"/></linearGradient><linearGradient id="eZet75OdCoJ6-stroke" x1="-0.083168" y1="-0.059103" x2="1.019022" y2="1.016279" spreadMethod="pad" gradientUnits="objectBoundingBox" gradientTransform="translate(0 0)"><stop id="eZet75OdCoJ6-stroke-0" offset="0%" stop-color="#9e9d9d"/><stop id="eZet75OdCoJ6-stroke-1" offset="21.9583%" stop-color="#595858"/><stop id="eZet75OdCoJ6-stroke-2" offset="30.6787%" stop-color="#979595"/><stop id="eZet75OdCoJ6-stroke-3" offset="43.9691%" stop-color="#3e3d3d"/><stop id="eZet75OdCoJ6-stroke-4" offset="66%" stop-color="#888585"/><stop id="eZet75OdCoJ6-stroke-5" offset="80%" stop-color="#424141"/><stop id="eZet75OdCoJ6-stroke-6" offset="90%" stop-color="#807e7e"/><stop id="eZet75OdCoJ6-stroke-7" offset="100%" stop-color="#474747"/></linearGradient><radialGradient id="eZet75OdCoJ12-stroke" cx="0" cy="0" r="0.583095" spreadMethod="pad" gradientUnits="objectBoundingBox" gradientTransform="matrix(0.936908 0.349576 -0.50124 1.343388 0.5 0.5)"><stop id="eZet75OdCoJ12-stroke-0" offset="68%" stop-color="#bfbfbf"/><stop id="eZet75OdCoJ12-stroke-1" offset="100%" stop-color="#646464"/></radialGradient><radialGradient id="eZet75OdCoJ13-stroke" cx="0" cy="0" r="0.766707" spreadMethod="pad" gradientUnits="objectBoundingBox" gradientTransform="matrix(-0.744451 -0.667677 0.434654 -0.484634 0.5 0.5)"><stop id="eZet75OdCoJ13-stroke-0" offset="56.0463%" stop-color="#404040"/><stop id="eZet75OdCoJ13-stroke-1" offset="100%" stop-color="#bfbfbf"/></radialGradient><linearGradient id="eZet75OdCoJ14-stroke" x1="0.524556" y1="-0.036651" x2="0.524556" y2="1.013693" spreadMethod="pad" gradientUnits="objectBoundingBox" gradientTransform="translate(0 0)"><stop id="eZet75OdCoJ14-stroke-0" offset="9%" stop-color="#e3e3e3"/><stop id="eZet75OdCoJ14-stroke-1" offset="47%" stop-color="#fff"/><stop id="eZet75OdCoJ14-stroke-2" offset="52%" stop-color="#acacac"/><stop id="eZet75OdCoJ14-stroke-3" offset="56%" stop-color="#ececec"/><stop id="eZet75OdCoJ14-stroke-4" offset="100%" stop-color="#c6c6c6"/></linearGradient><radialGradient id="eZet75OdCoJ20-fill" cx="0" cy="0" r="0.391383" spreadMethod="pad" gradientUnits="objectBoundingBox" gradientTransform="matrix(0.008254 0.999966 -1.047058 0.008642 0.5 0.629426)"><stop id="eZet75OdCoJ20-fill-0" offset="78.3411%" stop-color="#5a2020"/><stop id="eZet75OdCoJ20-fill-1" offset="100%" stop-color="#450000"/></radialGradient><radialGradient id="eZet75OdCoJ20-stroke" cx="0" cy="0" r="0.62412" spreadMethod="pad" gradientUnits="objectBoundingBox" gradientTransform="matrix(0.775694 0.631109 -0.544587 0.669349 0.508868 0.45911)"><stop id="eZet75OdCoJ20-stroke-0" offset="36.892%" stop-color="#3f3f3e"/><stop id="eZet75OdCoJ20-stroke-1" offset="100%" stop-color="#c0c0c1"/></radialGradient><linearGradient id="eZet75OdCoJ21-fill" x1="0.493507" y1="0" x2="0.714286" y2="1" spreadMethod="pad" gradientUnits="objectBoundingBox" gradientTransform="translate(0 0)"><stop id="eZet75OdCoJ21-fill-0" offset="26%" stop-color="#fff023"/><stop id="eZet75OdCoJ21-fill-1" offset="100%" stop-color="#c5801a"/></linearGradient><radialGradient id="eZet75OdCoJ24-fill" cx="0" cy="0" r="0.652755" spreadMethod="pad" gradientUnits="objectBoundingBox" gradientTransform="matrix(-0.007001 0.999975 -1.124374 -0.007871 0.5 0.416413)"><stop id="eZet75OdCoJ24-fill-0" offset="68.799%" stop-color="#d80808"/><stop id="eZet75OdCoJ24-fill-1" offset="100%" stop-color="#6e0000"/></radialGradient><linearGradient id="eZet75OdCoJ26-fill" x1="0.756605" y1="0.981403" x2="0.295244" y2="0.031071" spreadMethod="pad" gradientUnits="objectBoundingBox" gradientTransform="translate(0 0)"><stop id="eZet75OdCoJ26-fill-0" offset="0%" stop-color="#101010"/><stop id="eZet75OdCoJ26-fill-1" offset="82%" stop-color="#6a6a6a"/><stop id="eZet75OdCoJ26-fill-2" offset="100%" stop-color="#a1a1a1"/></linearGradient><radialGradient id="eZet75OdCoJ27-stroke" cx="0" cy="0" r="0.548959" spreadMethod="pad" gradientUnits="objectBoundingBox" gradientTransform="matrix(1 0 0 0.994945 0.502428 0.491958)"><stop id="eZet75OdCoJ27-stroke-0" offset="84%" stop-color="#0e0e0e"/><stop id="eZet75OdCoJ27-stroke-1" offset="95%" stop-color="#fbfbfb"/></radialGradient></defs><g transform="translate(0 0.000001)"><rect width="48" height="48" rx="2" ry="2" transform="matrix(6.273877 0.004344-.006087 8.791665-.426972-.104207)" fill="#519a45"/><rect width="46" height="46" rx="0" ry="0" transform="matrix(6.555937 0 0 4.561272-.999995 210.181495)" fill="url(#eZet75OdCoJ4-fill)"/><g transform="translate(0 0.10425)"><rect width="46" height="46" rx="0" ry="0" transform="matrix(6.086957 0 0 4.325492 9.999989 211)" fill="url(#eZet75OdCoJ6-fill)" stroke="url(#eZet75OdCoJ6-stroke)" stroke-width="1.5"/><path d="M14.366242,340h275.633769" transform="matrix(.986817 0 0-1-.176896 680)" fill="none" stroke="#490f0f" stroke-width="2"/><g transform="matrix(.109383 0 0 0.099437 86.656949 259.465779)" opacity="0.28"><path d="M577.14274,3.39224L521.39108,65.279638c19.5444,28.020999,26.848,61.719202,26.848,78.644002-16.6006-29.2744-34.8368-37.7272-52.79278-49.833803L459.53476,133.95704c48.83722,16.9434,78.73754,74.75079,78.73754,134.55139.00002,28.9036-9.96678,97.6746-78.73754,94.6844v-.2802c-50.72567-6.0032-98.36687-64.9478-102.65779-129.2878-4.27814-64.1486,22.92358-126.57819,67.77408-178.405391h-.15574C342.48137,104.01184,285.56993,191.00623,278.01483,292.27303c-.18514,2.4816-.34168,4.977-.46718,7.475-.00268.052.00264.1038,0,.1558-.12584,2.5296-.24754,5.0852-.31146,7.6308-.0663,2.5926-.09344,5.2092-.09344,7.8176c0,165.60019,134.39996,299.99999,299.99999,299.99999s300.00001-134.3998,300.00001-299.99999c0-7.7624-.2922-15.4644-.8722-23.0792-7.555-101.2668-64.4664-188.26119-146.4804-237.053591h-.1558c44.8506,51.827201,72.0522,114.256791,67.7742,178.405391-4.291,64.34-51.9322,123.2846-102.65779,129.2878v.2802c-68.7708,2.9902-78.7376-65.7808-78.7376-94.6844c0-59.8006,29.9004-117.60799,78.7376-134.55139l-35.9116-39.867203c-17.956,12.106603-36.1922,20.559403-52.7928,49.833803c0-16.9248,7.3036-50.623003,26.848-78.644002L577.14274,3.39224Z" fill="#f00" stroke-width="3" stroke-dashoffset="1.8"/></g></g><g transform="matrix(.928571 0 0 1 10.714347 4)"><g transform="translate(-.000007 0)"><path d="M9.99999,147.5c0-15.18783,13.43144-27.5,29.99997-27.5.00545,0,.0109,0,.01636,0h219.9673c.00545,0,.0109,0,.01636,0c16.56853,0,29.99997,12.31217,29.99997,27.5s-13.43144,27.5-29.99997,27.5c-.00545,0-.0109,0-.01636,0h-219.9673c-.00545,0-.0109,0-.01636,0-16.56853,0-29.99997-12.31217-29.99997-27.5Z" transform="translate(0 55)" stroke="url(#eZet75OdCoJ12-stroke)" stroke-width="5"/><path d="M100,175l10-15h80l10,15h-100Z" stroke="url(#eZet75OdCoJ13-stroke)" stroke-width="4"/><circle r="27.5" transform="matrix(1.090908 0 0 1 39.99997 202.5)" fill="rgba(192,192,193,0)" stroke="url(#eZet75OdCoJ14-stroke)" stroke-width="5"/><g transform="matrix(.082058 0 0 0.07471-7.032005 179.386799)"><path d="M577.14274,3.39224L521.39108,65.279638c19.5444,28.020999,26.848,61.719202,26.848,78.644002-16.6006-29.2744-34.8368-37.7272-52.79278-49.833803L459.53476,133.95704c48.83722,16.9434,78.73754,74.75079,78.73754,134.55139.00002,28.9036-9.96678,97.6746-78.73754,94.6844v-.2802c-50.72567-6.0032-98.36687-64.9478-102.65779-129.2878-4.27814-64.1486,22.92358-126.57819,67.77408-178.405391h-.15574C342.48137,104.01184,285.56993,191.00623,278.01483,292.27303c-.18514,2.4816-.34168,4.977-.46718,7.475-.00268.052.00264.1038,0,.1558-.12584,2.5296-.24754,5.0852-.31146,7.6308-.0663,2.5926-.09344,5.2092-.09344,7.8176c0,165.60019,134.39996,299.99999,299.99999,299.99999s300.00001-134.3998,300.00001-299.99999c0-7.7624-.2922-15.4644-.8722-23.0792-7.555-101.2668-64.4664-188.26119-146.4804-237.053591h-.1558c44.8506,51.827201,72.0522,114.256791,67.7742,178.405391-4.291,64.34-51.9322,123.2846-102.65779,129.2878v.2802c-68.7708,2.9902-78.7376-65.7808-78.7376-94.6844c0-59.8006,29.9004-117.60799,78.7376-134.55139l-35.9116-39.867203c-17.956,12.106603-36.1922,20.559403-52.7928,49.833803c0-16.9248,7.3036-50.623003,26.848-78.644002L577.14274,3.39224Z" fill="#f00" stroke-width="3" stroke-dashoffset="1.8"/></g></g></g><g transform="translate(0 0.000001)"><g transform="matrix(1 0 0 1.08035 0-1.607)"><g transform="translate(0 0.000002)"><path d="M20.00003,47.5c0-15.18783,12.47206-27.5,27.85711-27.5s27.85711,12.31217,27.85711,27.5c0,6.27584-2.12956,12.06068-5.71425,16.68871v57.31126h-.02148c.01427.33153.02148.66493.02148,1.00004c0,12.42641-9.91368,22.50001-22.14283,22.50001s-22.14283-10.0736-22.14283-22.5c0-.33511.00721-.6685.02148-1.00004h-.02148v-57.3112c-3.58472-4.62804-5.7143-10.4129-5.7143-16.68877L20.00003,47.5Z" transform="translate(.000011-.000001)" fill="url(#eZet75OdCoJ20-fill)" stroke="url(#eZet75OdCoJ20-stroke)" stroke-width="5"/></g><circle r="27.441998" transform="matrix(.918492 0 0 0.922848 48.160987 47.446474)" fill="url(#eZet75OdCoJ21-fill)" stroke="#c0c0c1" stroke-width="1.5"/></g><path d="M40,100h20" transform="translate(-1.839013-2)" fill="none" stroke="#4b5468"/><path d="M40,100h20" transform="translate(-2.142849 22)" fill="none" stroke="#4b5468"/><path d="M72.42369,133.00001c-.147352,2.05136-.738504,4.777467-1.719412,7.201777-3.531355,9.451787-12.25456,16.822519-22.844608,16.936443-10.585052-.163881-19.699087-7.541342-22.967089-17.218111-1.563304-4.437769-1.551327-6.277524-1.662131-7.580808l.05042-12.097881l2.96222-2.96222v-37.2809l-3.01264-3.01264v-7.82174h5.24364v48.22706l-.00001.00003.00001.00126v.01975c.00005-.00007.0001-.00015.00016-.00022l-.00017,9.94658q-.0668.68155,0,4.980921c.772264,11.1487,9.181908,19.002826,19.378193,19.002826c10.442219,0,18.93074-8.242466,19.35261-19.002826q.156581-5.012092.154861-4.980921l-.129284-9.91333-.02072-.08342c.00692.00979.01383.01958.02073.02938v-48.2271h5.24364v7.82174L69.46147,79.9983v37.2809l2.96222,2.96222v12.75859Z" transform="matrix(1 0 0 1.01 0.004871-.855559)" fill="url(#eZet75OdCoJ24-fill)"/></g><g><path d="M41.86624,350c15.18783,0,27.5,12.31217,27.5,27.5v42.5h-55v-42.5c0-15.18783,12.31217-27.5,27.5-27.5Z" transform="translate(.000001 0)" fill="url(#eZet75OdCoJ26-fill)" stroke-width="2"/><circle r="27.5" transform="translate(41.866242 377.5)" stroke="url(#eZet75OdCoJ27-stroke)" stroke-width="2"/></g></g></svg>
