<svg id="e5BupcTv1lg1" xmlns="http://www.w3.org/2000/svg" xmlns:xlink="http://www.w3.org/1999/xlink" viewBox="0 0 300 300" shape-rendering="geometricPrecision" text-rendering="geometricPrecision"><path d="" transform="translate(.000001 0)" fill="none" stroke="#3f5787" stroke-width="0.6"/><g transform="matrix(.866667 0 0 0.866667 19.99995 19.99995)"><path d="M0,140L0,0h140v45.47C89.99214,50.19463,50.19462,89.99214,45.47,140L0,140Z"/><path d="M160,0h140v140h-45.47C249.80537,89.99214,210.00786,50.19463,160,45.47L160,0Z"/><path d="M160,300v-45.47c50.00786-4.72463,89.80537-44.52214,94.53-94.53h45.47v140h-140Z"/><path d="M0.11871,300v-140h45.35128c4.72837,50.04743,44.58514,89.86834,94.64872,94.54115v45.45885h-140Z"/><circle r="20" transform="matrix(4 0 0 4 150 150)"/></g></svg>
